<?xml version="1.0" encoding="UTF-8" standalone="no"?>
<svg
   xmlns:dc="http://purl.org/dc/elements/1.1/"
   xmlns:cc="http://creativecommons.org/ns#"
   xmlns:rdf="http://www.w3.org/1999/02/22-rdf-syntax-ns#"
   xmlns:svg="http://www.w3.org/2000/svg"
   xmlns="http://www.w3.org/2000/svg"
   xmlns:xlink="http://www.w3.org/1999/xlink"
   xmlns:sodipodi="http://sodipodi.sourceforge.net/DTD/sodipodi-0.dtd"
   xmlns:inkscape="http://www.inkscape.org/namespaces/inkscape"
   enable-background="new 0 0 135 135"
   height="135px"
   id="Livello_1"
   version="1.1"
   viewBox="0 0 135 135"
   width="135px"
   xml:space="preserve"
   inkscape:version="0.91 r13725"
   sodipodi:docname="renew-book.svg"
   inkscape:export-filename="/home/blanko/Desktop/New_GUI/program/src/Gui/res/icons/big/renew-book.png"
   inkscape:export-xdpi="21.940016"
   inkscape:export-ydpi="21.940016"><metadata
     id="metadata80"><rdf:RDF><cc:Work
         rdf:about=""><dc:format>image/svg+xml</dc:format><dc:type
           rdf:resource="http://purl.org/dc/dcmitype/StillImage" /><dc:title /></cc:Work></rdf:RDF></metadata><defs
     id="defs78"><linearGradient
       id="linearGradient368"><stop
         style="stop-color:#ffffff;stop-opacity:0.10309278;"
         offset="0.0000000"
         id="stop369" /><stop
         style="stop-color:#ffffff;stop-opacity:0.0000000;"
         offset="1.0000000"
         id="stop372" /></linearGradient><linearGradient
       id="linearGradient10314"><stop
         id="stop10316"
         offset="0.0000000"
         style="stop-color:#f3f3f3;stop-opacity:1.0000000;" /><stop
         id="stop10318"
         offset="1.0000000"
         style="stop-color:#838383;stop-opacity:1.0000000;" /></linearGradient><linearGradient
       id="linearGradient2392"><stop
         id="stop2394"
         offset="0.0000000"
         style="stop-color:#a0a0a0;stop-opacity:1.0000000;" /><stop
         id="stop2396"
         offset="1.0000000"
         style="stop-color:#e7e7e7;stop-opacity:1.0000000;" /></linearGradient><linearGradient
       id="linearGradient2402"><stop
         style="stop-color:#d8d8d8;stop-opacity:1.0000000;"
         offset="0.0000000"
         id="stop2404" /><stop
         style="stop-color:#ffffff;stop-opacity:1.0000000;"
         offset="1.0000000"
         id="stop2406" /></linearGradient><linearGradient
       gradientTransform="matrix(1.269447,0,0,1.269447,-8.817277,-11.26556)"
       gradientUnits="userSpaceOnUse"
       y2="18.071468"
       x2="33.558048"
       y1="42.466652"
       x1="33.761253"
       id="linearGradient2390"
       xlink:href="#linearGradient10314"
       inkscape:collect="always" /><linearGradient
       gradientUnits="userSpaceOnUse"
       y2="7.1523275"
       x2="32.951836"
       y1="28.188753"
       x1="33.740231"
       id="linearGradient2420"
       xlink:href="#linearGradient368"
       inkscape:collect="always"
       gradientTransform="matrix(0.877849,0,0,0.938787,4.36843,1.430637)" /><linearGradient
       gradientTransform="matrix(1.269447,0,0,1.269447,-8.817277,-11.26556)"
       gradientUnits="userSpaceOnUse"
       y2="33.835342"
       x2="22.2577"
       y1="38.077984"
       x1="22.2577"
       id="linearGradient2398"
       xlink:href="#linearGradient2392"
       inkscape:collect="always" /><linearGradient
       gradientTransform="matrix(1.269447,0,0,1.269447,-11.959,-11.26556)"
       y2="16.33445"
       x2="23.495136"
       y1="25.350061"
       x1="23.318359"
       gradientUnits="userSpaceOnUse"
       id="linearGradient2400"
       xlink:href="#linearGradient2402"
       inkscape:collect="always" /><linearGradient
       gradientUnits="userSpaceOnUse"
       y2="36.403183"
       x2="21.245468"
       y1="29.420502"
       x1="21.055086"
       id="linearGradient2612"
       xlink:href="#linearGradient368"
       inkscape:collect="always"
       gradientTransform="matrix(0.900036,0,0,0.900036,1.822682,3.294402)" /></defs><sodipodi:namedview
     pagecolor="#ffffff"
     bordercolor="#666666"
     borderopacity="1"
     objecttolerance="10"
     gridtolerance="10"
     guidetolerance="10"
     inkscape:pageopacity="0"
     inkscape:pageshadow="2"
     inkscape:window-width="1366"
     inkscape:window-height="708"
     id="namedview76"
     showgrid="false"
     inkscape:zoom="1.2361274"
     inkscape:cx="-155.15173"
     inkscape:cy="86.761377"
     inkscape:window-x="0"
     inkscape:window-y="0"
     inkscape:window-maximized="1"
     inkscape:current-layer="Livello_1" /><g
     id="g3"
     transform="translate(-13.752628,0)"><path
       d="m 118.334,121.991 c 0,5.5 -4.5,10 -10,10 l -66.716,0 c -5.5,0 -10,-4.5 -10,-10 l 0,-110.074 c 0,-5.5 4.5,-10 10,-10 l 66.716,0 c 5.5,0 10,4.5 10,10 l 0,110.074 z"
       id="path5"
       inkscape:connector-curvature="0"
       style="fill:#ab4237" /></g><g
     id="g7"
     transform="translate(-13.752628,0)"><path
       d="m 116.05,121.564 c 0,5.5 -4.5,10 -10,10 l -66.716,0 c -5.5,0 -10,-4.5 -10,-10 l 0,-109.075 c 0,-5.5 4.5,-10 10,-10 l 66.716,0 c 5.5,0 10,4.5 10,10 l 0,109.075 z"
       id="path9"
       inkscape:connector-curvature="0"
       style="fill:#c5c6c6" /></g><g
     id="g11"
     transform="translate(-13.752628,0)"><path
       d="m 114.73,121.564 c 0,5.5 -4.5,10 -10,10 l -66.716,0 c -5.5,0 -10,-4.5 -10,-10 l 0,-109.075 c 0,-5.5 4.5,-10 10,-10 l 66.716,0 c 5.5,0 10,4.5 10,10 l 0,109.075 z"
       id="path13"
       inkscape:connector-curvature="0"
       style="fill:#edf5f7" /></g><g
     id="g15"
     transform="translate(-13.752628,0)"><path
       d="m 113.116,121.564 c 0,5.5 -4.5,10 -10,10 l -66.716,0 c -5.5,0 -10,-4.5 -10,-10 l 0,-109.075 c 0,-5.5 4.5,-10 10,-10 l 66.716,0 c 5.5,0 10,4.5 10,10 l 0,109.075 z"
       id="path17"
       inkscape:connector-curvature="0"
       style="fill:#c5c6c6" /></g><g
     id="g19"
     transform="translate(-13.752628,0)"><path
       d="m 111.144,121.564 c 0,5.5 -4.5,10 -10,10 l -66.716,0 c -5.5,0 -10,-4.5 -10,-10 l 0,-109.075 c 0,-5.5 4.5,-10 10,-10 l 66.716,0 c 5.5,0 10,4.5 10,10 l 0,109.075 z"
       id="path21"
       inkscape:connector-curvature="0"
       style="fill:#edf5f7" /></g><g
     id="g23"
     transform="translate(-13.752628,0)"><path
       d="m 109.204,121.564 c 0,5.5 -4.5,10 -10,10 l -66.716,0 c -5.5,0 -10,-4.5 -10,-10 l 0,-109.075 c 0,-5.5 4.5,-10 10,-10 l 66.716,0 c 5.5,0 10,4.5 10,10 l 0,109.075 z"
       id="path25"
       inkscape:connector-curvature="0"
       style="fill:#c5c6c6" /></g><g
     id="g27"
     transform="translate(-13.752628,0)"><path
       d="m 107.362,121.991 c 0,5.5 -4.5,10 -10,10 l -68.411,0 c -5.5,0 -10,-4.5 -10,-10 l 0,-110.074 c 0,-5.5 4.5,-10 10,-10 l 68.412,0 c 5.5,0 10,4.5 10,10 l 0,110.074 z"
       id="path29"
       inkscape:connector-curvature="0"
       style="fill:#e05b48" /></g><circle
     cx="12.647372"
     cy="19.211"
     r="4.1570001"
     id="circle31"
     style="fill:#ab4237" /><circle
     cx="12.647372"
     cy="42.926998"
     r="4.1570001"
     id="circle33"
     style="fill:#ab4237" /><circle
     cx="12.647372"
     cy="67.746002"
     r="4.1570001"
     id="circle35"
     style="fill:#ab4237" /><circle
     cx="12.647372"
     cy="93.417999"
     r="4.1570001"
     id="circle37"
     style="fill:#ab4237" /><circle
     cx="12.647372"
     cy="117.307"
     r="4.1570001"
     id="circle39"
     style="fill:#ab4237" /><circle
     cx="12.647372"
     cy="19.211"
     r="3.8510001"
     id="circle41"
     style="fill:#80322e" /><circle
     cx="12.647372"
     cy="42.926998"
     r="3.8510001"
     id="circle43"
     style="fill:#80322e" /><circle
     cx="12.647372"
     cy="67.746002"
     r="3.8510001"
     id="circle45"
     style="fill:#80322e" /><circle
     cx="12.647372"
     cy="93.417999"
     r="3.8510001"
     id="circle47"
     style="fill:#80322e" /><circle
     cx="12.647372"
     cy="117.344"
     r="3.8510001"
     id="circle49"
     style="fill:#80322e" /><g
     id="g51"
     transform="translate(-13.752628,0)"><path
       d="m 16.5,43.822 c 0,0.55 0.45,1 1,1 l 9.025,0 c 0.55,0 1,-0.45 1,-1 l 0,-1.79 c 0,-0.55 -0.45,-1 -1,-1 l -9.025,0 c -0.55,0 -1,0.45 -1,1 l 0,1.79 z"
       id="path53"
       inkscape:connector-curvature="0"
       style="fill:#888989" /></g><g
     id="g55"
     transform="translate(-13.752628,0)"><path
       d="m 16.5,20.105 c 0,0.55 0.45,1 1,1 l 9.025,0 c 0.55,0 1,-0.45 1,-1 l 0,-1.79 c 0,-0.55 -0.45,-1 -1,-1 l -9.025,0 c -0.55,0 -1,0.45 -1,1 l 0,1.79 z"
       id="path57"
       inkscape:connector-curvature="0"
       style="fill:#888989" /></g><g
     id="g59"
     transform="translate(-13.752628,0)"><path
       d="m 16.989,68.641 c 0,0.55 0.45,1 1,1 l 8.536,0 c 0.55,0 1,-0.45 1,-1 l 0,-1.79 c 0,-0.55 -0.45,-1 -1,-1 l -8.536,0 c -0.55,0 -1,0.45 -1,1 l 0,1.79 z"
       id="path61"
       inkscape:connector-curvature="0"
       style="fill:#888989" /></g><g
     id="g63"
     transform="translate(-13.752628,0)"><path
       d="m 16.989,94.313 c 0,0.55 0.45,1 1,1 l 8.536,0 c 0.55,0 1,-0.45 1,-1 l 0,-1.79 c 0,-0.55 -0.45,-1 -1,-1 l -8.536,0 c -0.55,0 -1,0.45 -1,1 l 0,1.79 z"
       id="path65"
       inkscape:connector-curvature="0"
       style="fill:#888989" /></g><g
     id="g67"
     transform="translate(-13.752628,0)"><path
       d="m 16.5,118.239 c 0,0.55 0.45,1 1,1 l 8.536,0 c 0.55,0 1,-0.45 1,-1 l 0,-1.79 c 0,-0.55 -0.45,-1 -1,-1 l -8.536,0 c -0.55,0 -1,0.45 -1,1 l 0,1.79 z"
       id="path69"
       inkscape:connector-curvature="0"
       style="fill:#888989" /></g><rect
     height="131.267"
     width="10.48"
     x="73.472374"
     y="1.321"
     id="rect72"
     style="fill:#405768" /><rect
     height="130.07401"
     width="2.3169999"
     x="83.952377"
     y="1.9170001"
     id="rect74"
     style="opacity:0.3;fill:#242e35" /><g
     id="g3782"
     transform="matrix(2.9267125,0,0,2.9267125,10.381457,-6.866939)"><path
       inkscape:connector-curvature="0"
       sodipodi:nodetypes="ccccc"
       id="path8643"
       d="m 18.29373,38.495233 14.209363,0 c 11.669248,0.224408 12.034067,-30.2899295 0,-30.1542768 L 18.29373,8.7977005 c 13.464515,0.4488165 12.585764,29.9219415 0,29.6975325 z"
       style="color:#000000;display:inline;overflow:visible;visibility:visible;opacity:1;fill:url(#linearGradient2390);fill-opacity:1;fill-rule:evenodd;stroke:#555753;stroke-width:1.51528597;stroke-linecap:round;stroke-linejoin:round;stroke-miterlimit:10;stroke-dasharray:none;stroke-dashoffset:0;stroke-opacity:1;marker:none;marker-start:none;marker-mid:none;marker-end:none" /><path
       inkscape:connector-curvature="0"
       style="color:#000000;display:inline;overflow:visible;visibility:visible;opacity:0.27807486;fill:none;fill-opacity:1;fill-rule:evenodd;stroke:url(#linearGradient2420);stroke-width:1.51528549;stroke-linecap:round;stroke-linejoin:round;stroke-miterlimit:10;stroke-dasharray:none;stroke-dashoffset:0;stroke-opacity:1;marker:none;marker-start:none;marker-mid:none;marker-end:none"
       d="m 22.011531,36.445279 10.703612,0 c 9.427407,0.193881 9.648529,-26.148465 0.155183,-26.148465 l -10.858795,0.351314 c 10.56741,-0.276061 10.167847,25.991033 0,25.797151 z"
       id="path2412"
       sodipodi:nodetypes="ccccc" /><path
       inkscape:connector-curvature="0"
       style="color:#000000;display:inline;overflow:visible;visibility:visible;opacity:1;fill:url(#linearGradient2398);fill-opacity:1;fill-rule:evenodd;stroke:#555753;stroke-width:1.51528537;stroke-linecap:butt;stroke-linejoin:miter;stroke-miterlimit:10;stroke-dasharray:none;stroke-dashoffset:0;stroke-opacity:1;marker:none;marker-start:none;marker-mid:none;marker-end:none"
       d="m 32.179094,38.483424 -15.272996,0.04763 c -3.590536,0 -8.3893654,-3.83981 -8.375613,-11.15003 l 16.218261,1e-6 c 0,6.059032 2.268949,11.326807 7.430348,11.102397 z"
       id="path1618"
       sodipodi:nodetypes="ccccc" /><path
       inkscape:connector-curvature="0"
       style="color:#000000;display:inline;overflow:visible;visibility:visible;opacity:1;fill:url(#linearGradient2400);fill-opacity:1;fill-rule:evenodd;stroke:#555753;stroke-width:1.51528502;stroke-linecap:butt;stroke-linejoin:miter;stroke-miterlimit:10;stroke-dasharray:none;stroke-dashoffset:0;stroke-opacity:1;marker:none;marker-start:none;marker-mid:none;marker-end:none"
       d="M 2.0049099,12.868422 16.316482,23.187659 35.921543,13.2798 l -10.322796,0 c 0,0 2.835801,-5.1275163 7.099564,-4.9031072 0,0 -15.273535,0.2244091 -15.273535,0.2244091 -4.039356,-0.2244091 -5.566757,4.2003541 -5.566757,4.2003541 l -9.8531091,0.06697 z"
       id="path2388"
       sodipodi:nodetypes="cccccccc" /><path
       inkscape:connector-curvature="0"
       sodipodi:nodetypes="ccccc"
       id="path2604"
       d="m 26.06304,37.062287 -8.482336,0.03539 c -2.985602,0 -6.709735,-3.011681 -7.176834,-8.283303 l 13.003098,10e-7 c -0.31821,3.546593 0.571854,5.550732 2.656072,8.247917 z"
       style="color:#000000;display:inline;overflow:visible;visibility:visible;opacity:0.81818183;fill:none;fill-opacity:1;fill-rule:evenodd;stroke:url(#linearGradient2612);stroke-width:1.51528442;stroke-linecap:butt;stroke-linejoin:miter;stroke-miterlimit:10;stroke-dasharray:none;stroke-dashoffset:0;stroke-opacity:1;marker:none;marker-start:none;marker-mid:none;marker-end:none" /><path
       inkscape:connector-curvature="0"
       sodipodi:nodetypes="cccccccc"
       id="path2614"
       d="m 6.7908383,14.416644 9.7972357,6.922473 12.996669,-6.508212 c -1.612992,0.05881 -4.808491,0 -7.212737,0 0,0 1.917189,-3.42618 3.992963,-4.695438 0,0 -9.073216,0.561771 -9.073216,0.561771 -2.946983,-0.163721 -4.524619,3.719406 -4.524619,3.719406 l -5.9762957,0 z"
       style="color:#000000;display:inline;overflow:visible;visibility:visible;opacity:1;fill:none;fill-opacity:1;fill-rule:evenodd;stroke:#ffffff;stroke-width:1.51528418;stroke-linecap:butt;stroke-linejoin:miter;stroke-miterlimit:10;stroke-dasharray:none;stroke-dashoffset:0;stroke-opacity:1;marker:none;marker-start:none;marker-mid:none;marker-end:none" /></g></svg>