<?xml version="1.0" encoding="UTF-8" standalone="no"?>
<svg
   xmlns:dc="http://purl.org/dc/elements/1.1/"
   xmlns:cc="http://creativecommons.org/ns#"
   xmlns:rdf="http://www.w3.org/1999/02/22-rdf-syntax-ns#"
   xmlns:svg="http://www.w3.org/2000/svg"
   xmlns="http://www.w3.org/2000/svg"
   xmlns:xlink="http://www.w3.org/1999/xlink"
   xmlns:sodipodi="http://sodipodi.sourceforge.net/DTD/sodipodi-0.dtd"
   xmlns:inkscape="http://www.inkscape.org/namespaces/inkscape"
   enable-background="new 0 0 135 135"
   height="135px"
   id="Livello_1"
   version="1.1"
   viewBox="0 0 135 135"
   width="135px"
   xml:space="preserve"
   inkscape:version="0.91 r13725"
   sodipodi:docname="edit-book.svg"
   inkscape:export-filename="/home/blanko/Desktop/New_GUI/program/gui/res/icons/big/edit-book.png"
   inkscape:export-xdpi="21.940016"
   inkscape:export-ydpi="21.940016"><metadata
     id="metadata80"><rdf:RDF><cc:Work
         rdf:about=""><dc:format>image/svg+xml</dc:format><dc:type
           rdf:resource="http://purl.org/dc/dcmitype/StillImage" /><dc:title></dc:title></cc:Work></rdf:RDF></metadata><defs
     id="defs78"><linearGradient
       id="linearGradient368"><stop
         style="stop-color:#ffffff;stop-opacity:0.10309278;"
         offset="0.0000000"
         id="stop369" /><stop
         style="stop-color:#ffffff;stop-opacity:0.0000000;"
         offset="1.0000000"
         id="stop372" /></linearGradient><linearGradient
       inkscape:collect="always"
       xlink:href="#linearGradient2994"
       id="linearGradient3000"
       x1="25.71875"
       y1="31.046875"
       x2="25.514589"
       y2="30.703125"
       gradientUnits="userSpaceOnUse"
       gradientTransform="matrix(2.1004561,0,0,2.1004561,-105.7124,47.281439)" /><linearGradient
       id="linearGradient2994"><stop
         style="stop-color:#000000;stop-opacity:1;"
         offset="0"
         id="stop2996" /><stop
         style="stop-color:#c9c9c9;stop-opacity:1;"
         offset="1"
         id="stop2998" /></linearGradient><radialGradient
       inkscape:collect="always"
       xlink:href="#linearGradient2984"
       id="radialGradient2990"
       cx="29.053354"
       cy="27.640751"
       fx="29.053354"
       fy="27.640751"
       r="3.2408545"
       gradientTransform="matrix(6.1408201,0,0,4.2633316,-222.77036,-11.550595)"
       gradientUnits="userSpaceOnUse" /><linearGradient
       inkscape:collect="always"
       id="linearGradient2984"><stop
         style="stop-color:#e7e2b8;stop-opacity:1;"
         offset="0"
         id="stop2986" /><stop
         style="stop-color:#e7e2b8;stop-opacity:0;"
         offset="1"
         id="stop2988" /></linearGradient><linearGradient
       inkscape:collect="always"
       xlink:href="#linearGradient2974"
       id="linearGradient2980"
       x1="46"
       y1="19.8125"
       x2="47.6875"
       y2="22.625"
       gradientUnits="userSpaceOnUse"
       gradientTransform="matrix(2.1004561,0,0,2.1004561,-105.3842,47.018882)" /><linearGradient
       id="linearGradient2974"><stop
         style="stop-color:#c1c1c1;stop-opacity:1;"
         offset="0"
         id="stop2976" /><stop
         style="stop-color:#acacac;stop-opacity:1;"
         offset="1"
         id="stop2978" /></linearGradient><linearGradient
       inkscape:collect="always"
       xlink:href="#linearGradient2966"
       id="linearGradient2972"
       x1="48.90625"
       y1="17.376184"
       x2="50.988335"
       y2="22.250591"
       gradientUnits="userSpaceOnUse"
       gradientTransform="matrix(2.1004561,0,0,2.1004561,-105.3842,47.018882)" /><linearGradient
       id="linearGradient2966"><stop
         style="stop-color:#ffd1d1;stop-opacity:1;"
         offset="0"
         id="stop2968" /><stop
         id="stop3006"
         offset="0.5"
         style="stop-color:#ff1d1d;stop-opacity:1;" /><stop
         style="stop-color:#6f0000;stop-opacity:1;"
         offset="1"
         id="stop2970" /></linearGradient><radialGradient
       inkscape:collect="always"
       xlink:href="#linearGradient2865"
       id="radialGradient3010"
       gradientUnits="userSpaceOnUse"
       gradientTransform="matrix(1.2951686,0,0,0.32211489,-71.181335,100.68285)"
       cx="23.5625"
       cy="40.4375"
       fx="23.5625"
       fy="40.4375"
       r="19.5625" /><linearGradient
       inkscape:collect="always"
       id="linearGradient2865"><stop
         style="stop-color:#000000;stop-opacity:1;"
         offset="0"
         id="stop2867" /><stop
         style="stop-color:#000000;stop-opacity:0;"
         offset="1"
         id="stop2869" /></linearGradient></defs><sodipodi:namedview
     pagecolor="#ffffff"
     bordercolor="#666666"
     borderopacity="1"
     objecttolerance="10"
     gridtolerance="10"
     guidetolerance="10"
     inkscape:pageopacity="0"
     inkscape:pageshadow="2"
     inkscape:window-width="1366"
     inkscape:window-height="708"
     id="namedview76"
     showgrid="false"
     inkscape:zoom="2.4722548"
     inkscape:cx="-6.2995525"
     inkscape:cy="79.855051"
     inkscape:window-x="0"
     inkscape:window-y="0"
     inkscape:window-maximized="1"
     inkscape:current-layer="Livello_1" /><g
     id="g3"
     transform="translate(9.7077372,1.2134671)"><path
       d="m 118.334,121.991 c 0,5.5 -4.5,10 -10,10 l -66.716,0 c -5.5,0 -10,-4.5 -10,-10 l 0,-110.074 c 0,-5.5 4.5,-10 10,-10 l 66.716,0 c 5.5,0 10,4.5 10,10 l 0,110.074 z"
       id="path5"
       inkscape:connector-curvature="0"
       style="fill:#ab4237" /></g><g
     id="g7"
     transform="translate(9.7077372,1.2134671)"><path
       d="m 116.05,121.564 c 0,5.5 -4.5,10 -10,10 l -66.716,0 c -5.5,0 -10,-4.5 -10,-10 l 0,-109.075 c 0,-5.5 4.5,-10 10,-10 l 66.716,0 c 5.5,0 10,4.5 10,10 l 0,109.075 z"
       id="path9"
       inkscape:connector-curvature="0"
       style="fill:#c5c6c6" /></g><g
     id="g11"
     transform="translate(9.7077372,1.2134671)"><path
       d="m 114.73,121.564 c 0,5.5 -4.5,10 -10,10 l -66.716,0 c -5.5,0 -10,-4.5 -10,-10 l 0,-109.075 c 0,-5.5 4.5,-10 10,-10 l 66.716,0 c 5.5,0 10,4.5 10,10 l 0,109.075 z"
       id="path13"
       inkscape:connector-curvature="0"
       style="fill:#edf5f7" /></g><g
     id="g15"
     transform="translate(9.7077372,1.2134671)"><path
       d="m 113.116,121.564 c 0,5.5 -4.5,10 -10,10 l -66.716,0 c -5.5,0 -10,-4.5 -10,-10 l 0,-109.075 c 0,-5.5 4.5,-10 10,-10 l 66.716,0 c 5.5,0 10,4.5 10,10 l 0,109.075 z"
       id="path17"
       inkscape:connector-curvature="0"
       style="fill:#c5c6c6" /></g><g
     id="g19"
     transform="translate(9.7077372,1.2134671)"><path
       d="m 111.144,121.564 c 0,5.5 -4.5,10 -10,10 l -66.716,0 c -5.5,0 -10,-4.5 -10,-10 l 0,-109.075 c 0,-5.5 4.5,-10 10,-10 l 66.716,0 c 5.5,0 10,4.5 10,10 l 0,109.075 z"
       id="path21"
       inkscape:connector-curvature="0"
       style="fill:#edf5f7" /></g><g
     id="g23"
     transform="translate(9.7077372,1.2134671)"><path
       d="m 109.204,121.564 c 0,5.5 -4.5,10 -10,10 l -66.716,0 c -5.5,0 -10,-4.5 -10,-10 l 0,-109.075 c 0,-5.5 4.5,-10 10,-10 l 66.716,0 c 5.5,0 10,4.5 10,10 l 0,109.075 z"
       id="path25"
       inkscape:connector-curvature="0"
       style="fill:#c5c6c6" /></g><g
     id="g27"
     transform="translate(9.7077372,1.2134671)"><path
       d="m 107.362,121.991 c 0,5.5 -4.5,10 -10,10 l -68.411,0 c -5.5,0 -10,-4.5 -10,-10 l 0,-110.074 c 0,-5.5 4.5,-10 10,-10 l 68.412,0 c 5.5,0 10,4.5 10,10 l 0,110.074 z"
       id="path29"
       inkscape:connector-curvature="0"
       style="fill:#e05b48" /></g><circle
     cx="36.107738"
     cy="20.424467"
     r="4.1570001"
     id="circle31"
     style="fill:#ab4237" /><circle
     cx="36.107738"
     cy="44.140465"
     r="4.1570001"
     id="circle33"
     style="fill:#ab4237" /><circle
     cx="36.107738"
     cy="68.959473"
     r="4.1570001"
     id="circle35"
     style="fill:#ab4237" /><circle
     cx="36.107738"
     cy="94.63147"
     r="4.1570001"
     id="circle37"
     style="fill:#ab4237" /><circle
     cx="36.107738"
     cy="118.52047"
     r="4.1570001"
     id="circle39"
     style="fill:#ab4237" /><circle
     cx="36.107738"
     cy="20.424467"
     r="3.8510001"
     id="circle41"
     style="fill:#80322e" /><circle
     cx="36.107738"
     cy="44.140465"
     r="3.8510001"
     id="circle43"
     style="fill:#80322e" /><circle
     cx="36.107738"
     cy="68.959473"
     r="3.8510001"
     id="circle45"
     style="fill:#80322e" /><circle
     cx="36.107738"
     cy="94.63147"
     r="3.8510001"
     id="circle47"
     style="fill:#80322e" /><circle
     cx="36.107738"
     cy="118.55747"
     r="3.8510001"
     id="circle49"
     style="fill:#80322e" /><g
     id="g51"
     transform="translate(9.7077372,1.2134671)"><path
       d="m 16.5,43.822 c 0,0.55 0.45,1 1,1 l 9.025,0 c 0.55,0 1,-0.45 1,-1 l 0,-1.79 c 0,-0.55 -0.45,-1 -1,-1 l -9.025,0 c -0.55,0 -1,0.45 -1,1 l 0,1.79 z"
       id="path53"
       inkscape:connector-curvature="0"
       style="fill:#888989" /></g><g
     id="g55"
     transform="translate(9.7077372,1.2134671)"><path
       d="m 16.5,20.105 c 0,0.55 0.45,1 1,1 l 9.025,0 c 0.55,0 1,-0.45 1,-1 l 0,-1.79 c 0,-0.55 -0.45,-1 -1,-1 l -9.025,0 c -0.55,0 -1,0.45 -1,1 l 0,1.79 z"
       id="path57"
       inkscape:connector-curvature="0"
       style="fill:#888989" /></g><g
     id="g59"
     transform="translate(9.7077372,1.2134671)"><path
       d="m 16.989,68.641 c 0,0.55 0.45,1 1,1 l 8.536,0 c 0.55,0 1,-0.45 1,-1 l 0,-1.79 c 0,-0.55 -0.45,-1 -1,-1 l -8.536,0 c -0.55,0 -1,0.45 -1,1 l 0,1.79 z"
       id="path61"
       inkscape:connector-curvature="0"
       style="fill:#888989" /></g><g
     id="g63"
     transform="translate(9.7077372,1.2134671)"><path
       d="m 16.989,94.313 c 0,0.55 0.45,1 1,1 l 8.536,0 c 0.55,0 1,-0.45 1,-1 l 0,-1.79 c 0,-0.55 -0.45,-1 -1,-1 l -8.536,0 c -0.55,0 -1,0.45 -1,1 l 0,1.79 z"
       id="path65"
       inkscape:connector-curvature="0"
       style="fill:#888989" /></g><g
     id="g67"
     transform="translate(9.7077372,1.2134671)"><path
       d="m 16.5,118.239 c 0,0.55 0.45,1 1,1 l 8.536,0 c 0.55,0 1,-0.45 1,-1 l 0,-1.79 c 0,-0.55 -0.45,-1 -1,-1 l -8.536,0 c -0.55,0 -1,0.45 -1,1 l 0,1.79 z"
       id="path69"
       inkscape:connector-curvature="0"
       style="fill:#888989" /></g><rect
     height="131.267"
     width="10.48"
     x="96.932739"
     y="2.5344672"
     id="rect72"
     style="fill:#405768" /><rect
     height="130.07401"
     width="2.3169999"
     x="107.41274"
     y="3.1304672"
     id="rect74"
     style="opacity:0.3;fill:#242e35" /><g
     id="g4240"
     transform="matrix(1.7589923,0,0,1.7589923,114.11287,-116.86875)"><ellipse
       ry="6.3013687"
       rx="25.336735"
       cy="113.70836"
       cx="-40.663933"
       style="color:#000000;display:inline;overflow:visible;visibility:visible;opacity:0.31578944;fill:url(#radialGradient3010);fill-opacity:1;fill-rule:evenodd;stroke:none;stroke-width:1;stroke-linecap:butt;stroke-linejoin:miter;stroke-miterlimit:4;stroke-dasharray:none;stroke-dashoffset:0;stroke-opacity:1;marker:none;marker-start:none;marker-mid:none;marker-end:none"
       id="path3008" /><path
       inkscape:connector-curvature="0"
       sodipodi:nodetypes="cccccc"
       id="path2960"
       d="M -57.051756,115.28371 -45.23669,103.46864 -3.0306514,82.989193 c 6.8264825,-2.62557 10.8961163,7.08904 4.8573048,10.502281 l -42.0747604,19.691776 -16.803649,2.10046 z"
       style="color:#000000;display:inline;overflow:visible;visibility:visible;opacity:1;fill:#cb9022;fill-opacity:1;fill-rule:evenodd;stroke:#5c410c;stroke-width:2.10045624;stroke-linecap:butt;stroke-linejoin:miter;stroke-miterlimit:4;stroke-dasharray:none;stroke-dashoffset:0;stroke-opacity:1;marker:none;marker-start:none;marker-mid:none;marker-end:none" /><path
       inkscape:connector-curvature="0"
       style="color:#000000;display:inline;overflow:visible;visibility:visible;opacity:1;fill:url(#linearGradient2972);fill-opacity:1;fill-rule:evenodd;stroke:none;stroke-width:1;stroke-linecap:butt;stroke-linejoin:miter;stroke-miterlimit:4;stroke-dasharray:none;stroke-dashoffset:0;stroke-opacity:1;marker:none;marker-start:none;marker-mid:none;marker-end:none"
       d="m -12.964131,89.028005 c 0,0 3.019406,0.196917 4.2009126,2.822488 1.2171996,2.704885 0,5.579336 0,5.579336 l 10.56792,-5.185501 c 0,0 3.0499295,-1.851273 1.3784243,-5.973172 C 1.5344527,82.205561 -2.46185,83.842504 -2.46185,83.842504 l -10.502281,5.185501 z"
       id="path2964"
       sodipodi:nodetypes="czcczcc" /><path
       inkscape:connector-curvature="0"
       sodipodi:nodetypes="czcczcc"
       id="path2962"
       d="m -12.964131,89.028005 c 0,0 3.019406,0.196917 4.2009126,2.822488 1.2171996,2.704885 0,5.579336 0,5.579336 l 4.2009123,-2.100456 c 0,0 1.7371444,-2.770222 0.4594748,-5.644976 -1.3127851,-2.953766 -4.6603871,-2.756848 -4.6603871,-2.756848 l -4.2009126,2.100456 z"
       style="color:#000000;display:inline;overflow:visible;visibility:visible;opacity:1;fill:url(#linearGradient2980);fill-opacity:1;fill-rule:evenodd;stroke:none;stroke-width:1;stroke-linecap:butt;stroke-linejoin:miter;stroke-miterlimit:4;stroke-dasharray:none;stroke-dashoffset:0;stroke-opacity:1;marker:none;marker-start:none;marker-mid:none;marker-end:none" /><path
       inkscape:connector-curvature="0"
       sodipodi:nodetypes="cccc"
       id="path2982"
       d="m -54.054304,113.774 9.452053,-9.45205 c 3.150684,1.70662 4.791665,4.52911 3.938355,7.81107 l -13.390408,1.64098 z"
       style="color:#000000;display:inline;overflow:visible;visibility:visible;opacity:1;fill:url(#radialGradient2990);fill-opacity:1;fill-rule:evenodd;stroke:none;stroke-width:1;stroke-linecap:butt;stroke-linejoin:miter;stroke-miterlimit:4;stroke-dasharray:none;stroke-dashoffset:0;stroke-opacity:1;marker:none;marker-start:none;marker-mid:none;marker-end:none" /><path
       inkscape:connector-curvature="0"
       sodipodi:nodetypes="cccc"
       id="path2992"
       d="m -51.231816,110.82024 -3.413241,3.3476 4.922944,-0.65639 c 0.459474,-1.50971 -0.393836,-2.23174 -1.509703,-2.69121 z"
       style="color:#000000;display:inline;overflow:visible;visibility:visible;opacity:1;fill:url(#linearGradient3000);fill-opacity:1;fill-rule:evenodd;stroke:none;stroke-width:1;stroke-linecap:butt;stroke-linejoin:miter;stroke-miterlimit:4;stroke-dasharray:none;stroke-dashoffset:0;stroke-opacity:1;marker:none;marker-start:none;marker-mid:none;marker-end:none" /><path
       inkscape:connector-curvature="0"
       sodipodi:nodetypes="ccccc"
       id="path3002"
       d="m -44.602251,104.25631 3.281962,2.62557 32.3204332,-15.372543 C -9.9333657,89.711254 -11.608133,89.231188 -12.99782,89.068056 l -31.604431,15.188254 z"
       style="color:#000000;display:inline;overflow:visible;visibility:visible;opacity:1;fill:#ffffff;fill-opacity:0.36363639;fill-rule:evenodd;stroke:none;stroke-width:1;stroke-linecap:butt;stroke-linejoin:miter;stroke-miterlimit:4;stroke-dasharray:none;stroke-dashoffset:0;stroke-opacity:1;marker:none;marker-start:none;marker-mid:none;marker-end:none" /><path
       inkscape:connector-curvature="0"
       sodipodi:nodetypes="ccccc"
       id="path3004"
       d="m -40.663896,112.2643 0.393835,-1.57534 31.992237,-14.975413 c 0,0 -0.2313863,1.288896 -0.4534444,1.573976 L -40.663896,112.2643 Z"
       style="color:#000000;display:inline;overflow:visible;visibility:visible;opacity:1;fill:#000000;fill-opacity:0.36363639;fill-rule:evenodd;stroke:none;stroke-width:1;stroke-linecap:butt;stroke-linejoin:miter;stroke-miterlimit:4;stroke-dasharray:none;stroke-dashoffset:0;stroke-opacity:1;marker:none;marker-start:none;marker-mid:none;marker-end:none" /></g></svg>